<svg xmlns="http://www.w3.org/2000/svg" viewBox="0 0 36 36"><defs><style>.cls-1{fill:#4a4a4a;}</style></defs><title>icon_code@2x</title><g id="图层_2" data-name="图层 2"><g id="图层_1-2" data-name="图层 1"><path class="cls-1" d="M0,0H17V17H0V0M3,3H14V14H3V3"/><path class="cls-1" d="M6,11h5V6H6v5"/><path class="cls-1" d="M32,23h4V19H32v4"/><path class="cls-1" d="M28,27h4V23H28v4"/><path class="cls-1" d="M32,32h4V28H32v4"/><path class="cls-1" d="M28,36h8V33H28v3"/><path class="cls-1" d="M19,28h6v2.64H22V36H19V28"/><path class="cls-1" d="M19,19v7h2.64V21.73H27V19H19"/><path class="cls-1" d="M19,0H36V17H19V0m3,3H33V14H22V3"/><path class="cls-1" d="M25,11h5V6H25v5"/><path class="cls-1" d="M0,19H17V36H0V19m3,3H14V33H3V22"/><path class="cls-1" d="M6,30h5V25H6v5"/></g></g></svg>