<svg xmlns="http://www.w3.org/2000/svg" viewBox="0 0 29.9 25.93"><defs><style>.cls-1{fill:#ff5b05;}</style></defs><title>icon_news@2x</title><g id="图层_2" data-name="图层 2"><g id="图层_2-2" data-name="图层 2"><path class="cls-1" d="M14,22.69l-1.45-1.18c-3.35-2.67-4.18-2.9-4.74-2.9H2.75c-.58,0-.71-.16-.71-.73v-10c0-.39,0-.63.52-.63H7.12c.55,0,1.39-.22,5.05-2.86.65-.47,1.29-.95,1.84-1.36V22.69h0M15.47.1a1.07,1.07,0,0,0-1.12.12s-1.57,1.23-3.28,2.47a20.63,20.63,0,0,1-4,2.58H.87A.86.86,0,0,0,0,6.13V19.8a.86.86,0,0,0,.87.86H7.74a17.73,17.73,0,0,1,3.64,2.56c1.54,1.23,2.92,2.44,2.93,2.45a1.06,1.06,0,0,0,.7.26,1.08,1.08,0,0,0,.43-.09,1,1,0,0,0,.62-1V1a1,1,0,0,0-.6-.94h0"/><path class="cls-1" d="M24.74,13A7.17,7.17,0,0,0,21.1,6.74a1.31,1.31,0,0,0-.49-.15.86.86,0,0,0-.44,1.61,5.43,5.43,0,0,1-.09,9.56.86.86,0,0,0,.46,1.6,1.21,1.21,0,0,0,.45-.12A7.17,7.17,0,0,0,24.74,13"/><path class="cls-1" d="M23.73,2.37a1,1,0,0,0-.52-.17.86.86,0,0,0-.87.86.88.88,0,0,0,.5.77,10.49,10.49,0,0,1,0,18.28.92.92,0,0,0-.52.78.86.86,0,0,0,.87.86,1,1,0,0,0,.51-.17,12.18,12.18,0,0,0,0-21.2"/></g></g></svg>