<svg xmlns="http://www.w3.org/2000/svg" viewBox="0 0 55.64 39.63"><defs><style>.cls-1,.cls-2{fill:#fff;}.cls-1{fill-rule:evenodd;}</style></defs><title>icon_menu@2x</title><g id="图层_2" data-name="图层 2"><g id="图层_1-2" data-name="图层 1"><path class="cls-1" d="M17.52,5.28a1.49,1.49,0,1,1,0-3H54.15a1.49,1.49,0,0,1,0,3Z"/><path class="cls-1" d="M17.52,21.31a1.49,1.49,0,1,1,0-3H54.15a1.49,1.49,0,0,1,0,3Z"/><path class="cls-1" d="M17.52,37.33a1.49,1.49,0,1,1,0-3H54.15a1.49,1.49,0,0,1,0,3Z"/><circle class="cls-2" cx="3.78" cy="3.79" r="3.78"/><circle class="cls-2" cx="3.78" cy="19.81" r="3.78"/><circle class="cls-2" cx="3.78" cy="35.84" r="3.78"/></g></g></svg>