<svg xmlns="http://www.w3.org/2000/svg" viewBox="0 0 36 36"><defs><style>.cls-1{fill:#4a4a4a;}</style></defs><title>icon_scan@2x</title><g id="图层_2" data-name="图层 2"><g id="图层_1-2" data-name="图层 1"><path class="cls-1" d="M.95,16H35.05a1,1,0,0,1,.95.95v1.11a1,1,0,0,1-.95.95H.95A1,1,0,0,1,0,18.05V16.95A1,1,0,0,1,.95,16"/><path class="cls-1" d="M0,12V3A3,3,0,0,1,3,0H13V3H5A2,2,0,0,0,3,5v7H0"/><path class="cls-1" d="M36,12V3a3,3,0,0,0-3-3H23V3h8a2,2,0,0,1,2,2v7h3"/><path class="cls-1" d="M0,22V33a3,3,0,0,0,3,3H13V33H5a2,2,0,0,1-2-2V22H0"/><path class="cls-1" d="M36,22V33a3,3,0,0,1-3,3H23V33h8a2,2,0,0,0,2-2V22h3"/></g></g></svg>