<svg xmlns="http://www.w3.org/2000/svg" viewBox="0 0 35 35"><defs><style>.cls-1{fill:#ff5b05;fill-opacity:0.9;}</style></defs><title>icon_search@2x</title><g id="图层_2" data-name="图层 2"><g id="图层_1-2" data-name="图层 1"><path id="Shape" class="cls-1" d="M32.6,35l-8.24-8.85C21.89,28.08,18,30,14.67,30A14.83,14.83,0,0,1,0,15,14.83,14.83,0,0,1,14.67,0,14.83,14.83,0,0,1,29.34,15a15.11,15.11,0,0,1-2.77,8.73L35,32.3ZM14.67,3.13A11.73,11.73,0,0,0,3.07,15,11.73,11.73,0,0,0,14.67,26.84,11.73,11.73,0,0,0,26.27,15,11.73,11.73,0,0,0,14.67,3.13Z"/></g></g></svg>