<svg xmlns="http://www.w3.org/2000/svg" viewBox="0 0 68.97 68.97"><defs><style>.cls-1{fill:#fff;stroke:#ff5b05;stroke-miterlimit:10;stroke-width:1.4px;}.cls-2{fill:#ff5b05;fill-rule:evenodd;}</style></defs><title>pic_loadpicture_min@2x</title><g id="图层_2" data-name="图层 2"><g id="图层_2-2" data-name="图层 2"><rect class="cls-1" x="0.7" y="0.7" width="67.57" height="67.57" rx="4" ry="4"/><path class="cls-2" d="M44.86,22.57a1.35,1.35,0,0,0-1.89.17l-2.59,3.09a1.34,1.34,0,1,0,2.06,1.73L45,24.46a1.35,1.35,0,0,0-.17-1.9Zm5.52,9.56A1.35,1.35,0,0,0,48.82,31l-4,.7a1.35,1.35,0,1,0,.47,2.65l4-.7a1.34,1.34,0,0,0,1.09-1.56Zm-2.41,9-3.5-2a1.35,1.35,0,0,0-1.35,2.33l3.5,2A1.35,1.35,0,0,0,48,41.16Zm-8.54,3.42a1.34,1.34,0,0,0-2.53.92l1.38,3.79a1.35,1.35,0,0,0,2.53-.92l-1.38-3.79Zm-8.17-.8a1.34,1.34,0,0,0-1.72.8l-1.38,3.79a1.35,1.35,0,0,0,2.53.92l1.38-3.79a1.34,1.34,0,0,0-.8-1.72Zm-6.77-4.63-3.5,2a1.35,1.35,0,0,0,1.35,2.33l3.5-2a1.35,1.35,0,0,0-1.35-2.33Zm.72-5.85a1.35,1.35,0,0,0-1.09-1.56l-4-.7a1.34,1.34,0,1,0-.47,2.65l4,.7a1.35,1.35,0,0,0,1.56-1.09Zm3.39-7.47L26,22.73a1.35,1.35,0,0,0-2.06,1.73l2.59,3.09a1.34,1.34,0,1,0,2.06-1.73Zm5.89-7a1.34,1.34,0,0,0-1.35,1.35v4a1.35,1.35,0,1,0,2.69,0v-4a1.34,1.34,0,0,0-1.35-1.35Z"/></g></g></svg>