<svg xmlns="http://www.w3.org/2000/svg" viewBox="0 0 102 62"><defs><style>.cls-1{fill:#fff;}.cls-2{fill:none;stroke:#e5e5e5;stroke-width:3px;}</style></defs><title>pic_close@2x</title><g id="图层_2" data-name="图层 2"><g id="图层_1-2" data-name="图层 1"><g id="关"><g id="Switch-Background"><path id="path-14" class="cls-1" d="M31,0H71a31,31,0,0,1,31,31h0A31,31,0,0,1,71,62H31A31,31,0,0,1,0,31H0A31,31,0,0,1,31,0Z"/><path class="cls-2" d="M31,1.5H71A29.5,29.5,0,0,1,100.5,31h0A29.5,29.5,0,0,1,71,60.5H31A29.5,29.5,0,0,1,1.5,31h0A29.5,29.5,0,0,1,31,1.5Z"/></g><g id="handle"><circle id="path-15" cx="31" cy="31" r="28"/><circle id="path-15-2" data-name="path-15" class="cls-1" cx="31" cy="31" r="28"/></g></g></g></g></svg>