<svg xmlns="http://www.w3.org/2000/svg" viewBox="0 0 53.4 53.4"><defs><style>.cls-1{fill:#fff;stroke:#ff5b05;stroke-miterlimit:10;stroke-width:1.4px;}.cls-2{fill:#ff5b05;fill-rule:evenodd;}</style></defs><title>pic_loadpicture_max@2x</title><g id="图层_2" data-name="图层 2"><g id="图层_2-2" data-name="图层 2"><rect class="cls-1" x="0.7" y="0.7" width="52" height="52" rx="4" ry="4"/><path class="cls-2" d="M34.68,17.53a1,1,0,0,0-1.46.13l-2,2.38a1,1,0,1,0,1.59,1.33l2-2.38a1,1,0,0,0-.13-1.46Zm4.25,7.36a1,1,0,0,0-1.2-.84l-3.06.54a1,1,0,1,0,.36,2l3.06-.54a1,1,0,0,0,.84-1.2Zm-1.86,7-2.69-1.55a1,1,0,0,0-1,1.79L36,33.63a1,1,0,0,0,1-1.79Zm-6.57,2.63a1,1,0,0,0-1.95.71l1.06,2.92a1,1,0,0,0,1.95-.71l-1.06-2.92Zm-6.28-.62a1,1,0,0,0-1.33.62l-1.06,2.92a1,1,0,0,0,1.95.71l1.06-2.92a1,1,0,0,0-.62-1.33ZM19,30.29l-2.69,1.55a1,1,0,0,0,1,1.79L20,32.08a1,1,0,0,0-1-1.79Zm.55-4.5a1,1,0,0,0-.84-1.2L15.67,24a1,1,0,1,0-.36,2l3.06.54a1,1,0,0,0,1.2-.84ZM22.17,20l-2-2.38A1,1,0,0,0,18.59,19l2,2.38A1,1,0,1,0,22.17,20Zm4.53-5.41a1,1,0,0,0-1,1v3.11a1,1,0,1,0,2.07,0V15.66a1,1,0,0,0-1-1Z"/></g></g></svg>